<?xml version="1.0" encoding="utf-8"?>
<!-- Generator: Adobe Illustrator 21.0.2, SVG Export Plug-In . SVG Version: 6.00 Build 0)  -->
<svg version="1.1" id="Layer_1" xmlns="http://www.w3.org/2000/svg" xmlns:xlink="http://www.w3.org/1999/xlink" x="0px" y="0px"
	 viewBox="0 0 100 100" style="enable-background:new 0 0 100 100;" xml:space="preserve">
<path d="M89,75H78V24.8l12.4-12.4c0.8-0.8,0.8-2,0-2.8c-0.8-0.8-2-0.8-2.8,0L75.2,22H25V11c0-1.1-0.9-2-2-2s-2,0.9-2,2v11H10
	c-1.1,0-2,0.9-2,2s0.9,2,2,2h11v51c0,0.1,0,0.3,0,0.4c0,0.1,0,0.1,0.1,0.2c0,0.1,0,0.1,0.1,0.2c0,0.1,0.1,0.1,0.1,0.2
	c0,0,0,0.1,0.1,0.1c0.1,0.2,0.3,0.4,0.6,0.6c0,0,0.1,0.1,0.2,0.1c0.1,0,0.1,0.1,0.2,0.1c0.1,0,0.1,0,0.2,0.1c0.1,0,0.1,0,0.2,0.1
	c0.1,0,0.3,0,0.4,0h51v11c0,1.1,0.9,2,2,2s2-0.9,2-2V79h11c1.1,0,2-0.9,2-2S90.1,75,89,75z M71.2,26L25,72.2V26H71.2z M27.8,75
	L74,28.8V75H27.8z"/>
</svg>
